<svg xmlns="http://www.w3.org/2000/svg" xmlns:xlink="http://www.w3.org/1999/xlink" width="448.166" height="129.496" viewBox="0 0 448.166 129.496">
  <defs>
    <linearGradient id="linear-gradient" x1="1.052" y1="0.056" x2="0" y2="1" gradientUnits="objectBoundingBox">
      <stop offset="0" stop-color="#9c00ff"/>
      <stop offset="1" stop-color="#d84b45"/>
    </linearGradient>
  </defs>
  <g id="logo" transform="translate(-717.31 -506)">
    <path id="Path_223316" data-name="Path 223316" d="M7.476,0h35.6V-10.947H19.847V-61.321H7.476ZM56.515-48.861A7.185,7.185,0,0,0,63.9-55.892a7.113,7.113,0,0,0-7.387-6.942,7.169,7.169,0,0,0-7.387,6.942A7.242,7.242,0,0,0,56.515-48.861ZM50.73,0H62.389V-41.474H50.73ZM98.79-52.777h2.67V-63.635H96.476c-11.837,0-18.245,7.12-18.245,19.58v2.581H70.4v8.989h7.832V0H89.89V-32.485h9.078v-8.989H89.89v-2.67C89.979-49.128,92.115-52.777,98.79-52.777Zm48.06,31.328c0-12.727-9.7-21.093-21.538-21.093-11.926,0-22.072,8.366-22.072,21.805C103.24-7.921,112.585.8,125.312.8c7.3,0,14.6-2.848,18.512-8.1l-6.853-6.853a14.424,14.424,0,0,1-10.858,4.628c-5.607,0-9.523-2.67-10.769-7.476h31.328C146.761-18.868,146.85-20.292,146.85-21.449Zm-31.506-3.115c1.246-5.607,5.429-7.832,10.146-7.832,5.251,0,9.345,2.937,9.7,7.832ZM228.107,0l-7.476-61.321h-10.68L191.172-21.093,172.215-61.321h-10.5L154.148,0h12.638l4.45-38,15.13,31.061h9.7L211.019-38l4.45,38Zm15.575-48.861a7.185,7.185,0,0,0,7.387-7.031,7.113,7.113,0,0,0-7.387-6.942,7.169,7.169,0,0,0-7.387,6.942A7.242,7.242,0,0,0,243.682-48.861ZM237.9,0h11.659V-41.474H237.9Zm47.526-42.542c-4.094,0-10.68,2.4-12.46,8.01v-6.942H261.3V0h11.659V-21.271c0-7.565,5.162-9.79,9.345-9.79,4.005,0,7.921,2.937,7.921,9.523V0h11.659V-22.784C301.977-35.244,296.281-42.542,285.423-42.542Zm68.8,21.093c0-12.727-9.7-21.093-21.538-21.093-11.926,0-22.072,8.366-22.072,21.805C310.61-7.921,319.955.8,332.682.8c7.3,0,14.6-2.848,18.512-8.1l-6.853-6.853a14.424,14.424,0,0,1-10.858,4.628c-5.607,0-9.523-2.67-10.769-7.476h31.328C354.131-18.868,354.22-20.292,354.22-21.449Zm-31.506-3.115c1.246-5.607,5.429-7.832,10.146-7.832,5.251,0,9.345,2.937,9.7,7.832Z" transform="translate(811.256 590)" fill="#2e2f46"/>
    <path id="Path_223317" data-name="Path 223317" d="M7.348,0H1.8V-16.371H6.094a7.466,7.466,0,0,1,3.164.545,4.046,4.046,0,0,1,1.734,1.5,4.076,4.076,0,0,1,.6,2.209,3.565,3.565,0,0,1-2.5,3.457,5.064,5.064,0,0,1,2.854,1.477,3.847,3.847,0,0,1,1.061,2.719,4,4,0,0,1-.645,2.238A4.688,4.688,0,0,1,10.471-.621,6.982,6.982,0,0,1,7.348,0ZM6.164-14.285H4.148v4.922H5.707a3.954,3.954,0,0,0,2.666-.715,2.38,2.38,0,0,0,.791-1.852Q9.164-14.285,6.164-14.285ZM6.34-7.277H4.148v5.191H6.457a7.522,7.522,0,0,0,2.607-.3,2.479,2.479,0,0,0,1.1-.932,2.429,2.429,0,0,0,.416-1.359,2.321,2.321,0,0,0-.439-1.371,2.6,2.6,0,0,0-1.248-.926A7.816,7.816,0,0,0,6.34-7.277ZM24.171,0V-1.371A4.97,4.97,0,0,1,22.618-.223a4.064,4.064,0,0,1-1.74.41A3.626,3.626,0,0,1,19-.322a3.309,3.309,0,0,1-1.3-1.383,6.927,6.927,0,0,1-.439-2.9v-6.176h2.133v6.152a4.241,4.241,0,0,0,.486,2.373,1.965,1.965,0,0,0,1.705.674,3.12,3.12,0,0,0,2.59-1.488v-7.711H26.3V0Zm8.514-15.316a1.25,1.25,0,0,1,.9.363,1.192,1.192,0,0,1,.375.891,1.217,1.217,0,0,1-.375.891,1.23,1.23,0,0,1-.9.375,1.182,1.182,0,0,1-.867-.381,1.223,1.223,0,0,1-.375-.885,1.21,1.21,0,0,1,.375-.873A1.182,1.182,0,0,1,32.685-15.316ZM31.63-10.781h2.133V0H31.63Zm7.542-5.59H41.3V0H39.172Zm14.69,0h2.145V0H51.448a4.991,4.991,0,0,1-3.814-1.512A5.673,5.673,0,0,1,46.21-5.566,5.38,5.38,0,0,1,47.7-9.48a5.093,5.093,0,0,1,3.814-1.535,6.938,6.938,0,0,1,2.344.457Zm0,14.543V-8.66a4.424,4.424,0,0,0-2.016-.5,3.252,3.252,0,0,0-2.537,1.043,4.035,4.035,0,0,0-.943,2.813,3.683,3.683,0,0,0,.82,2.566,2.541,2.541,0,0,0,1.043.727,7.038,7.038,0,0,0,1.98.188Zm8.421-13.488a1.25,1.25,0,0,1,.9.363,1.192,1.192,0,0,1,.375.891,1.217,1.217,0,0,1-.375.891,1.23,1.23,0,0,1-.9.375,1.182,1.182,0,0,1-.867-.381,1.223,1.223,0,0,1-.375-.885,1.21,1.21,0,0,1,.375-.873A1.182,1.182,0,0,1,62.283-15.316Zm-1.055,4.535h2.133V0H61.228Zm9.628,0V-9.41A4.287,4.287,0,0,1,74.1-10.992a3.574,3.574,0,0,1,1.875.521A3.4,3.4,0,0,1,77.3-9.041a6.835,6.835,0,0,1,.451,2.877V0H75.614V-6.141a4.2,4.2,0,0,0-.5-2.361,1.927,1.927,0,0,0-1.687-.709A3.073,3.073,0,0,0,70.856-7.7V0h-2.18V-10.781Zm11.6,3.727a3.3,3.3,0,0,1,1.26-2.725,5.38,5.38,0,0,1,3.439-1h4.441v1.664h-2.18a4.463,4.463,0,0,1,.879,1.172,2.823,2.823,0,0,1,.246,1.207,3.229,3.229,0,0,1-.48,1.658,3.384,3.384,0,0,1-1.236,1.248,7.544,7.544,0,0,1-2.479.691q-1.207.176-1.207.832a.706.706,0,0,0,.451.615,7.136,7.136,0,0,0,1.635.5,17.706,17.706,0,0,1,2.549.68,3.291,3.291,0,0,1,1.025.7,2.638,2.638,0,0,1,.773,1.945A2.816,2.816,0,0,1,90.2,4.582a6.468,6.468,0,0,1-3.65.914,6.542,6.542,0,0,1-3.686-.92,2.834,2.834,0,0,1-1.377-2.467q0-2.191,2.707-2.824Q83.12-1.406,83.12-2.086a1.251,1.251,0,0,1,.463-.937,2.864,2.864,0,0,1,1.248-.621A3.541,3.541,0,0,1,82.452-7.055ZM86.46-8.93a2.052,2.052,0,0,0-1.477.586,1.882,1.882,0,0,0-.609,1.406,1.783,1.783,0,0,0,.6,1.377,2.158,2.158,0,0,0,1.512.545,2.136,2.136,0,0,0,1.506-.557,1.811,1.811,0,0,0,.6-1.389,1.834,1.834,0,0,0-.609-1.406A2.16,2.16,0,0,0,86.46-8.93ZM85.956.5a3.12,3.12,0,0,0-1.764.457,1.365,1.365,0,0,0-.686,1.172q0,1.664,3,1.664a4.736,4.736,0,0,0,2.2-.416A1.289,1.289,0,0,0,89.483,2.2q0-.75-.984-1.225A5.873,5.873,0,0,0,85.956.5Zm22.865-7.371L107.04-7.945a8.054,8.054,0,0,1-2.385-2.01,3.815,3.815,0,0,1-.709-2.279,4.027,4.027,0,0,1,1.342-3.141,5.014,5.014,0,0,1,3.486-1.207,6.608,6.608,0,0,1,3.762,1.148v2.66a5.428,5.428,0,0,0-3.809-1.7,3.143,3.143,0,0,0-1.887.533,1.62,1.62,0,0,0-.738,1.365,2.118,2.118,0,0,0,.539,1.383,6.661,6.661,0,0,0,1.746,1.348l1.793,1.055q3,1.781,3,4.547a4.176,4.176,0,0,1-1.318,3.2,4.822,4.822,0,0,1-3.428,1.23A7.209,7.209,0,0,1,104.016-1.3V-4.277a5.518,5.518,0,0,0,4.395,2.4,2.754,2.754,0,0,0,1.834-.615,1.931,1.931,0,0,0,.732-1.541Q110.977-5.531,108.821-6.867ZM122.9-10.8a5.623,5.623,0,0,1,4.09,1.588,5.34,5.34,0,0,1,1.629,3.99,5.072,5.072,0,0,1-1.652,3.873,5.861,5.861,0,0,1-4.16,1.541,5.624,5.624,0,0,1-4.055-1.564,5.2,5.2,0,0,1-1.629-3.908,5.233,5.233,0,0,1,1.646-3.943A5.736,5.736,0,0,1,122.9-10.8Zm-.117,1.922a3.37,3.37,0,0,0-2.52,1.008,3.521,3.521,0,0,0-.984,2.566,3.365,3.365,0,0,0,1.008,2.525,3.563,3.563,0,0,0,2.59.979,3.5,3.5,0,0,0,2.572-.99,3.414,3.414,0,0,0,1-2.537,3.387,3.387,0,0,0-1.043-2.543A3.626,3.626,0,0,0,122.784-8.883Zm10.53-7.488h2.133V0h-2.133ZM147.676,0V-1.371a4.97,4.97,0,0,1-1.553,1.148,4.064,4.064,0,0,1-1.74.41,3.626,3.626,0,0,1-1.881-.51,3.309,3.309,0,0,1-1.3-1.383,6.927,6.927,0,0,1-.439-2.9v-6.176H142.9v6.152a4.241,4.241,0,0,0,.486,2.373,1.965,1.965,0,0,0,1.705.674,3.12,3.12,0,0,0,2.59-1.488v-7.711h2.133V0Zm5.9-9.07,4.008-3.937v2.227H161v1.922h-3.41v5.285q0,1.852,1.535,1.852a4.711,4.711,0,0,0,2.426-.773V-.5a5.386,5.386,0,0,1-2.684.691,3.556,3.556,0,0,1-2.437-.855,2.437,2.437,0,0,1-.5-.58,3.082,3.082,0,0,1-.334-.844,9.473,9.473,0,0,1-.135-1.986V-8.859h-1.875Zm12.885-6.246a1.25,1.25,0,0,1,.9.363,1.192,1.192,0,0,1,.375.891,1.217,1.217,0,0,1-.375.891,1.23,1.23,0,0,1-.9.375,1.182,1.182,0,0,1-.867-.381,1.223,1.223,0,0,1-.375-.885,1.21,1.21,0,0,1,.375-.873A1.182,1.182,0,0,1,166.463-15.316Zm-1.055,4.535h2.133V0h-2.133Zm12.651-.023a5.623,5.623,0,0,1,4.09,1.588,5.34,5.34,0,0,1,1.629,3.99,5.072,5.072,0,0,1-1.652,3.873,5.861,5.861,0,0,1-4.16,1.541,5.624,5.624,0,0,1-4.055-1.564,5.2,5.2,0,0,1-1.629-3.908,5.233,5.233,0,0,1,1.646-3.943A5.736,5.736,0,0,1,178.059-10.8Zm-.117,1.922a3.37,3.37,0,0,0-2.52,1.008,3.521,3.521,0,0,0-.984,2.566,3.365,3.365,0,0,0,1.008,2.525,3.563,3.563,0,0,0,2.59.979,3.5,3.5,0,0,0,2.572-.99,3.414,3.414,0,0,0,1-2.537,3.387,3.387,0,0,0-1.043-2.543A3.626,3.626,0,0,0,177.942-8.883Zm12.616-1.9V-9.41a4.287,4.287,0,0,1,3.246-1.582,3.574,3.574,0,0,1,1.875.521A3.4,3.4,0,0,1,197-9.041a6.835,6.835,0,0,1,.451,2.877V0h-2.133V-6.141a4.2,4.2,0,0,0-.5-2.361,1.927,1.927,0,0,0-1.687-.709A3.073,3.073,0,0,0,190.558-7.7V0h-2.18V-10.781ZM202.178-.773v-2.3a9.72,9.72,0,0,0,1.846,1.025,4.3,4.3,0,0,0,1.588.393,1.987,1.987,0,0,0,1.148-.328.943.943,0,0,0,.48-.785,1.057,1.057,0,0,0-.311-.779,7.208,7.208,0,0,0-1.342-.9,9.511,9.511,0,0,1-2.7-1.963,2.816,2.816,0,0,1-.639-1.775,2.492,2.492,0,0,1,.967-2.027,3.824,3.824,0,0,1,2.49-.785,6.857,6.857,0,0,1,3.246.891v2.109a6.493,6.493,0,0,0-3.105-1.148,1.727,1.727,0,0,0-1,.264.811.811,0,0,0-.381.7,1,1,0,0,0,.346.715,5.94,5.94,0,0,0,1.213.82l.762.434q2.7,1.523,2.7,3.375a2.686,2.686,0,0,1-1.037,2.174,4.07,4.07,0,0,1-2.666.85,6.5,6.5,0,0,1-1.711-.205A11.518,11.518,0,0,1,202.178-.773Zm19.478-8.3,4.008-3.937v2.227h3.41v1.922h-3.41v5.285q0,1.852,1.535,1.852a4.711,4.711,0,0,0,2.426-.773V-.5a5.386,5.386,0,0,1-2.684.691A3.556,3.556,0,0,1,224.5-.668a2.437,2.437,0,0,1-.5-.58,3.082,3.082,0,0,1-.334-.844,9.473,9.473,0,0,1-.135-1.986V-8.859h-1.875ZM238.6-10.8a5.623,5.623,0,0,1,4.09,1.588,5.34,5.34,0,0,1,1.629,3.99,5.072,5.072,0,0,1-1.652,3.873A5.861,5.861,0,0,1,238.5.188a5.624,5.624,0,0,1-4.055-1.564,5.2,5.2,0,0,1-1.629-3.908,5.233,5.233,0,0,1,1.646-3.943A5.736,5.736,0,0,1,238.6-10.8Zm-.117,1.922a3.37,3.37,0,0,0-2.52,1.008,3.521,3.521,0,0,0-.984,2.566,3.365,3.365,0,0,0,1.008,2.525,3.563,3.563,0,0,0,2.59.979,3.5,3.5,0,0,0,2.572-.99,3.414,3.414,0,0,0,1-2.537A3.387,3.387,0,0,0,241.1-7.875,3.626,3.626,0,0,0,238.479-8.883Zm32.755-7.488h2.18V0h-2.355V-12.738L266.019-6.41h-.434L260.5-12.738V0h-2.344V-16.371h2.2l5.449,6.727Zm8.8,1.055a1.25,1.25,0,0,1,.9.363,1.192,1.192,0,0,1,.375.891,1.217,1.217,0,0,1-.375.891,1.23,1.23,0,0,1-.9.375,1.182,1.182,0,0,1-.867-.381,1.223,1.223,0,0,1-.375-.885,1.21,1.21,0,0,1,.375-.873A1.182,1.182,0,0,1,280.03-15.316Zm-1.055,4.535h2.133V0h-2.133Zm9.628,0V-9.41a4.287,4.287,0,0,1,3.246-1.582,3.574,3.574,0,0,1,1.875.521,3.4,3.4,0,0,1,1.318,1.43,6.835,6.835,0,0,1,.451,2.877V0h-2.133V-6.141a4.2,4.2,0,0,0-.5-2.361,1.927,1.927,0,0,0-1.687-.709A3.073,3.073,0,0,0,288.6-7.7V0h-2.18V-10.781ZM309.938-5.2h-7.582a3.52,3.52,0,0,0,1.037,2.461,3.421,3.421,0,0,0,2.467.914,6.419,6.419,0,0,0,3.891-1.312v2.086a7.121,7.121,0,0,1-1.951.938,8.158,8.158,0,0,1-2.268.281,5.09,5.09,0,0,1-2.883-.738,5.371,5.371,0,0,1-1.764-1.986,6.073,6.073,0,0,1-.662-2.889,5.735,5.735,0,0,1,1.395-4,4.657,4.657,0,0,1,3.621-1.541,4.266,4.266,0,0,1,3.422,1.5,5.992,5.992,0,0,1,1.277,4.02ZM302.4-6.48h5.426a2.978,2.978,0,0,0-.762-1.969,2.447,2.447,0,0,0-1.828-.691,2.629,2.629,0,0,0-1.881.691A3.425,3.425,0,0,0,302.4-6.48ZM329.31,0h-5.543V-16.371h4.289a7.466,7.466,0,0,1,3.164.545,4.046,4.046,0,0,1,1.734,1.5,4.076,4.076,0,0,1,.6,2.209,3.565,3.565,0,0,1-2.5,3.457,5.064,5.064,0,0,1,2.854,1.477,3.847,3.847,0,0,1,1.061,2.719,4,4,0,0,1-.645,2.238,4.688,4.688,0,0,1-1.893,1.605A6.982,6.982,0,0,1,329.31,0Zm-1.184-14.285h-2.016v4.922h1.559a3.954,3.954,0,0,0,2.666-.715,2.38,2.38,0,0,0,.791-1.852Q331.126-14.285,328.126-14.285Zm.176,7.008h-2.191v5.191h2.309a7.522,7.522,0,0,0,2.607-.3,2.479,2.479,0,0,0,1.1-.932,2.429,2.429,0,0,0,.416-1.359,2.321,2.321,0,0,0-.439-1.371,2.6,2.6,0,0,0-1.248-.926A7.816,7.816,0,0,0,328.3-7.277ZM348.453-5.2h-7.582a3.52,3.52,0,0,0,1.037,2.461,3.421,3.421,0,0,0,2.467.914,6.419,6.419,0,0,0,3.891-1.312v2.086a7.121,7.121,0,0,1-1.951.938,8.158,8.158,0,0,1-2.268.281,5.09,5.09,0,0,1-2.883-.738A5.371,5.371,0,0,1,339.4-2.561a6.073,6.073,0,0,1-.662-2.889,5.735,5.735,0,0,1,1.395-4,4.657,4.657,0,0,1,3.621-1.541,4.266,4.266,0,0,1,3.422,1.5,5.992,5.992,0,0,1,1.277,4.02ZM340.918-6.48h5.426a2.978,2.978,0,0,0-.762-1.969,2.447,2.447,0,0,0-1.828-.691,2.629,2.629,0,0,0-1.881.691A3.425,3.425,0,0,0,340.918-6.48ZM351.53-9.07l4.008-3.937v2.227h3.41v1.922h-3.41v5.285q0,1.852,1.535,1.852A4.711,4.711,0,0,0,359.5-2.5V-.5a5.386,5.386,0,0,1-2.684.691,3.556,3.556,0,0,1-2.437-.855,2.437,2.437,0,0,1-.5-.58,3.082,3.082,0,0,1-.334-.844,9.473,9.473,0,0,1-.135-1.986V-8.859H351.53Zm10.272,0,4.008-3.937v2.227h3.41v1.922h-3.41v5.285q0,1.852,1.535,1.852a4.711,4.711,0,0,0,2.426-.773V-.5a5.386,5.386,0,0,1-2.684.691,3.556,3.556,0,0,1-2.437-.855,2.437,2.437,0,0,1-.5-.58,3.082,3.082,0,0,1-.334-.844,9.473,9.473,0,0,1-.135-1.986V-8.859H361.8ZM382.774-5.2h-7.582a3.52,3.52,0,0,0,1.037,2.461,3.421,3.421,0,0,0,2.467.914,6.419,6.419,0,0,0,3.891-1.312v2.086a7.121,7.121,0,0,1-1.951.938,8.158,8.158,0,0,1-2.268.281,5.09,5.09,0,0,1-2.883-.738,5.371,5.371,0,0,1-1.764-1.986,6.073,6.073,0,0,1-.662-2.889,5.735,5.735,0,0,1,1.395-4,4.657,4.657,0,0,1,3.621-1.541,4.266,4.266,0,0,1,3.422,1.5,5.992,5.992,0,0,1,1.277,4.02ZM375.239-6.48h5.426a2.978,2.978,0,0,0-.762-1.969,2.447,2.447,0,0,0-1.828-.691,2.629,2.629,0,0,0-1.881.691A3.425,3.425,0,0,0,375.239-6.48Zm14.409-4.3v2.473l.117-.187q1.547-2.5,3.094-2.5a3.814,3.814,0,0,1,2.52,1.219L394.253-7.9a3.159,3.159,0,0,0-2.062-1.055,2.21,2.21,0,0,0-1.787.984,3.718,3.718,0,0,0-.756,2.332V0H387.5V-10.781Zm18.74-5.59h2.344V-2.133H418.1V0h-9.715Zm14.854,1.055a1.25,1.25,0,0,1,.9.363,1.192,1.192,0,0,1,.375.891,1.217,1.217,0,0,1-.375.891,1.23,1.23,0,0,1-.9.375,1.182,1.182,0,0,1-.867-.381,1.223,1.223,0,0,1-.375-.885,1.21,1.21,0,0,1,.375-.873A1.182,1.182,0,0,1,423.241-15.316Zm-1.055,4.535h2.133V0h-2.133Zm7.741,0v-.645a5.8,5.8,0,0,1,1.107-3.879,3.4,3.4,0,0,1,2.654-1.277,7.184,7.184,0,0,1,1.582.211v2.086a2.879,2.879,0,0,0-.984-.187,2.017,2.017,0,0,0-1.74.668,4.237,4.237,0,0,0-.486,2.379v.645h1.922v1.922H432.06V0h-2.133V-8.859h-1.547v-1.922ZM446.915-5.2h-7.582a3.52,3.52,0,0,0,1.037,2.461,3.421,3.421,0,0,0,2.467.914,6.419,6.419,0,0,0,3.891-1.312v2.086a7.121,7.121,0,0,1-1.951.938,8.158,8.158,0,0,1-2.268.281,5.09,5.09,0,0,1-2.883-.738,5.371,5.371,0,0,1-1.764-1.986,6.073,6.073,0,0,1-.662-2.889,5.735,5.735,0,0,1,1.395-4,4.657,4.657,0,0,1,3.621-1.541,4.266,4.266,0,0,1,3.422,1.5,5.992,5.992,0,0,1,1.277,4.02ZM439.38-6.48h5.426a2.978,2.978,0,0,0-.762-1.969,2.447,2.447,0,0,0-1.828-.691,2.629,2.629,0,0,0-1.881.691A3.425,3.425,0,0,0,439.38-6.48Z" transform="translate(717.31 630)" fill="#2e2f46"/>
    <path id="Subtraction_2" data-name="Subtraction 2" d="M65.948-7275.2H0v-86H11.384v64.37h9.329l17.419-26.127v26.127H45.85l20.1-30.943v52.573Zm7.357,0v-62.69H63.989L45.85-7310.569v-27.323H38.132L18.753-7308.18V-7361.2H84.69v86H73.306Z" transform="translate(717.31 7867.203)" fill="url(#linear-gradient)"/>
  </g>
</svg>
